<svg width="35" height="36" viewBox="0 0 35 36" fill="none" xmlns="http://www.w3.org/2000/svg">
<path d="M35 27.5168C35 26.8945 34.4944 26.4279 33.4833 26.1168C32.9389 25.9612 31.85 25.8445 30.2167 25.7668C29.05 25.6112 28.2722 25.4945 27.8833 25.4168H27.65C27.0278 25.339 26.7556 25.1834 26.8333 24.9501C26.9111 24.7168 27.2611 24.5612 27.8833 24.4834H28.1167C28.6611 24.3279 29.0889 24.2112 29.4 24.1334C29.8667 23.9001 30.1389 23.5501 30.2167 23.0834C30.45 22.1501 29.7889 21.489 28.2333 21.1001C27.1444 20.8668 25.55 20.7112 23.45 20.6334C23.7611 19.1557 23.5278 17.7557 22.75 16.4334L17.9667 8.03343C17.8889 7.87787 17.7333 7.8001 17.5 7.8001C17.2667 7.8001 17.1111 7.87787 17.0333 8.03343L15.8667 10.1334C15.7889 10.3668 15.7889 10.5612 15.8667 10.7168C15.9444 10.8723 16.0806 10.9501 16.275 10.9501C16.4694 10.9501 16.6056 10.8723 16.6833 10.7168L17.5 9.31676L21.9333 17.0168C22.4 17.7945 22.6333 18.6307 22.6333 19.5251C22.6333 20.4195 22.4 21.2557 21.9333 22.0334C21.4667 22.8112 20.8444 23.4334 20.0667 23.9001C19.2889 24.3668 18.4333 24.6001 17.5 24.6001C16.5667 24.6001 15.7111 24.3668 14.9333 23.9001C14.1556 23.4334 13.5333 22.8112 13.0667 22.0334C12.6 21.2557 12.3667 20.4195 12.3667 19.5251C12.3667 18.6307 12.6 17.7945 13.0667 17.0168L15.2833 13.1668C15.4389 12.9334 15.4583 12.739 15.3417 12.5834C15.225 12.4279 15.0694 12.3501 14.875 12.3501C14.6806 12.3501 14.5444 12.4279 14.4667 12.5834L12.25 16.4334C11.4722 17.7557 11.2389 19.1557 11.55 20.6334C9.45 20.7112 7.85556 20.8668 6.76667 21.1001C5.21111 21.489 4.55 22.1501 4.78333 23.0834C4.86111 23.5501 5.13333 23.9001 5.6 24.1334C5.91111 24.2112 6.33889 24.3279 6.88333 24.4834H7C7.77778 24.5612 8.16667 24.7168 8.16667 24.9501C8.16667 25.1834 7.85556 25.339 7.23333 25.4168H7.11667C6.72778 25.4945 5.95 25.6112 4.78333 25.7668C3.15 25.8445 2.06111 25.9612 1.51667 26.1168C0.505556 26.4279 0 26.8945 0 27.5168C0 27.9057 0.136111 28.2557 0.408333 28.5668C0.680556 28.8779 1.225 29.1112 2.04167 29.2668C2.85833 29.4223 4.00556 29.5001 5.48333 29.5001H7.7C9.33333 29.5001 10.4222 29.539 10.9667 29.6168C11.7444 29.7723 12.0944 29.9668 12.0167 30.2001C11.9389 30.4334 11.5889 30.589 10.9667 30.6668H10.85C10.2278 30.8223 9.76111 30.9779 9.45 31.1334C8.98333 31.4445 8.75 31.9112 8.75 32.5334C8.75 33.4668 9.76111 34.1279 11.7833 34.5168C13.3389 34.9057 15.2639 35.1001 17.5583 35.1001C19.8528 35.1001 21.7778 34.9057 23.3333 34.5168C25.2778 34.1279 26.25 33.4668 26.25 32.5334C26.25 31.9112 26.0167 31.4445 25.55 31.1334C25.2389 30.9779 24.7722 30.8223 24.15 30.6668H24.0333C23.4111 30.589 23.0806 30.4334 23.0417 30.2001C23.0028 29.9668 23.3333 29.7723 24.0333 29.6168C24.5778 29.539 25.6667 29.5001 27.3 29.5001H29.5167C29.75 29.5001 29.9056 29.4223 29.9833 29.2668C30.0611 29.1112 30.0417 28.9362 29.925 28.7418C29.8083 28.5473 29.6722 28.4501 29.5167 28.4501L27.3 28.5668C25.6667 28.489 24.5389 28.5279 23.9167 28.6834C22.75 28.839 22.1278 29.2668 22.05 29.9668C21.9722 30.5112 22.1083 30.9001 22.4583 31.1334C22.8083 31.3668 23.275 31.5612 23.8583 31.7168C24.4417 31.8723 24.8111 31.989 24.9667 32.0668C25.1222 32.1445 25.2 32.2807 25.2 32.4751C25.2 32.6695 25.0444 32.864 24.7333 33.0584C24.4222 33.2529 23.8778 33.4279 23.1 33.5834C21.6222 33.8945 19.775 34.0501 17.5583 34.0501C15.3417 34.0501 13.4944 33.8945 12.0167 33.5834C11.2389 33.4279 10.675 33.2529 10.325 33.0584C9.975 32.864 9.8 32.6695 9.8 32.4751C9.8 32.2807 9.87778 32.1445 10.0333 32.0668C10.1889 31.989 10.5583 31.8723 11.1417 31.7168C11.725 31.5612 12.1917 31.3668 12.5417 31.1334C12.8917 30.9001 13.0278 30.5112 12.95 29.9668C12.8722 29.2668 12.25 28.839 11.0833 28.6834C10.4611 28.5279 9.33333 28.489 7.7 28.5668L5.48333 28.4501C2.91667 28.4501 1.43889 28.2168 1.05 27.7501C1.05 27.6723 1.05 27.5751 1.05 27.4584C1.05 27.3418 1.34167 27.2251 1.925 27.1084C2.50833 26.9918 3.46111 26.8557 4.78333 26.7001C6.18333 26.6223 7.11667 26.5445 7.58333 26.4668C8.59444 26.2334 9.13889 25.8445 9.21667 25.3001C9.37222 24.3668 8.67222 23.7445 7.11667 23.4334H6.88333C6.10556 23.2779 5.73611 23.064 5.775 22.7918C5.81389 22.5195 6.18333 22.3057 6.88333 22.1501H7C8.08889 21.839 9.68333 21.6834 11.7833 21.6834C11.9389 21.9945 12.0944 22.3057 12.25 22.6168C12.7944 23.5501 13.5333 24.289 14.4667 24.8334C15.4 25.3779 16.4111 25.6501 17.5 25.6501C18.5889 25.6501 19.6 25.3779 20.5333 24.8334C21.4667 24.289 22.2056 23.5501 22.75 22.6168C22.9056 22.3057 23.0611 21.9945 23.2167 21.6834C25.3167 21.6834 26.9111 21.839 28 22.1501H28.1167C28.8167 22.3057 29.1861 22.5195 29.225 22.7918C29.2639 23.064 28.8944 23.2779 28.1167 23.4334H27.8833C27.3389 23.5112 26.9111 23.6279 26.6 23.7834C26.1333 24.0168 25.8611 24.3668 25.7833 24.8334C25.7056 25.6112 26.25 26.1557 27.4167 26.4668C27.8833 26.5445 28.8167 26.6223 30.2167 26.7001C31.5389 26.8557 32.4917 26.9918 33.075 27.1084C33.6583 27.2251 33.95 27.3612 33.95 27.5168C33.95 27.9057 33.3278 28.1779 32.0833 28.3334C31.85 28.3334 31.7139 28.4307 31.675 28.6251C31.6361 28.8195 31.6556 28.9945 31.7333 29.1501C31.8111 29.3057 31.9667 29.3834 32.2 29.3834C34.1444 29.1501 35.0778 28.5279 35 27.5168ZM21 21.5668C21.0778 21.4112 21.0972 21.2751 21.0583 21.1584C21.0194 21.0418 20.9417 20.9445 20.825 20.8668C20.7083 20.789 20.5722 20.7695 20.4167 20.8084C20.2611 20.8473 20.1444 20.9057 20.0667 20.9834C19.8333 21.5279 19.4833 21.9168 19.0167 22.1501C18.55 22.3834 18.0444 22.5001 17.5 22.5001C17.3444 22.5001 17.2278 22.5584 17.15 22.6751C17.0722 22.7918 17.0333 22.9279 17.0333 23.0834C17.0333 23.239 17.0722 23.3557 17.15 23.4334C17.2278 23.5112 17.3444 23.5501 17.5 23.5501C18.2 23.5501 18.8611 23.3751 19.4833 23.0251C20.1056 22.6751 20.6111 22.189 21 21.5668ZM23.3333 10.9501C23.8778 10.9501 24.3833 10.8334 24.85 10.6001C25.3167 10.3668 25.6861 9.99732 25.9583 9.49176C26.2306 8.98621 26.3667 8.48065 26.3667 7.9751C26.3667 7.46954 26.25 6.98343 26.0167 6.51676L23.8 2.78343C23.7222 2.62788 23.5861 2.5501 23.3917 2.5501C23.1972 2.5501 23.0611 2.62788 22.9833 2.78343L20.7667 6.51676C20.5333 6.98343 20.4167 7.46954 20.4167 7.9751C20.4167 8.48065 20.5528 8.98621 20.825 9.49176C21.0972 9.99732 21.4472 10.3668 21.875 10.6001C22.3028 10.8334 22.7889 10.9501 23.3333 10.9501ZM21.7 6.98343L23.3333 4.06676L25.0833 6.98343C25.4722 7.68343 25.4722 8.36399 25.0833 9.0251C24.6944 9.68621 24.1306 10.0168 23.3917 10.0168C22.6528 10.0168 22.0889 9.68621 21.7 9.0251C21.3111 8.36399 21.3111 7.68343 21.7 6.98343ZM14 6.4001C14.8556 6.4001 15.4972 6.01121 15.925 5.23343C16.3528 4.45565 16.3333 3.71676 15.8667 3.01677L14.35 0.333431C14.2722 0.177876 14.1361 0.100098 13.9417 0.100098C13.7472 0.100098 13.6111 0.177876 13.5333 0.333431L12.0167 3.01677C11.55 3.71676 11.5306 4.45565 11.9583 5.23343C12.3861 6.01121 13.0667 6.4001 14 6.4001ZM12.8333 3.48343L14 1.61676L15.05 3.48343C15.2833 3.87232 15.2833 4.28065 15.05 4.70843C14.8167 5.13621 14.4472 5.3501 13.9417 5.3501C13.4361 5.3501 13.0667 5.13621 12.8333 4.70843C12.6 4.28065 12.6 3.87232 12.8333 3.48343Z" fill="#1C71D5"/>
</svg>
