<svg width="35" height="36" viewBox="0 0 35 36" fill="none" xmlns="http://www.w3.org/2000/svg">
<path d="M29.0502 28.5668C28.9724 28.0223 28.6613 27.5945 28.1169 27.2834V24.2501C28.7391 23.939 29.0502 23.4723 29.0502 22.8501V21.2168C28.9724 20.9057 28.8558 20.6529 28.7002 20.4584C28.5446 20.264 28.3502 20.089 28.1169 19.9334V16.9001C28.5835 16.589 28.8946 16.2001 29.0502 15.7334C29.0502 15.5779 29.0502 15.2279 29.0502 14.6834V13.7501C28.9724 13.1279 28.6613 12.7001 28.1169 12.4668L28.0002 12.3501C27.8446 11.339 27.4946 10.3668 26.9502 9.43343C26.0946 7.95565 24.8113 6.78899 23.1002 5.93343L22.7502 5.81676C22.2058 5.58343 21.7391 5.21399 21.3502 4.70843C20.9613 4.20288 20.728 3.6001 20.6502 2.9001C20.8058 2.9001 20.9224 2.86121 21.0002 2.78343C21.078 2.70565 21.1169 2.58899 21.1169 2.43343C21.1169 2.27787 21.078 2.16121 21.0002 2.08343C20.9224 2.00565 20.8058 1.96676 20.6502 1.96676V1.1501C20.8058 1.1501 20.9224 1.09176 21.0002 0.975098C21.078 0.858429 21.1169 0.741764 21.1169 0.625099C21.1169 0.50843 21.078 0.391766 21.0002 0.275097C20.9224 0.158432 20.8058 0.100098 20.6502 0.100098H14.3502C14.1946 0.100098 14.078 0.158432 14.0002 0.275097C13.9224 0.391766 13.8835 0.547321 13.8835 0.741764C13.8835 0.936207 14.0002 1.07232 14.2335 1.1501V1.96676C14.0002 1.96676 13.8835 2.12232 13.8835 2.43343C13.8835 2.74454 14.0002 2.9001 14.2335 2.9001C14.1558 3.83343 13.8058 4.61121 13.1835 5.23343C12.8724 5.54454 12.5224 5.73899 12.1335 5.81676C11.6669 6.0501 11.2391 6.28343 10.8502 6.51676C10.7724 6.59454 10.7141 6.69176 10.6752 6.80843C10.6363 6.9251 10.6558 7.04176 10.7335 7.15843C10.8113 7.2751 10.9085 7.35287 11.0252 7.39176C11.1419 7.43065 11.278 7.41121 11.4335 7.33343C11.7446 7.17788 12.0946 6.98343 12.4835 6.7501C13.2613 6.43899 13.903 5.93343 14.4085 5.23343C14.9141 4.53343 15.2058 3.75565 15.2835 2.9001H19.6002C19.678 3.83343 19.9696 4.63065 20.4752 5.29176C20.9808 5.95288 21.6224 6.47787 22.4002 6.86676C23.5669 7.33343 24.5585 8.05288 25.3752 9.0251C26.1919 9.99732 26.7558 11.1057 27.0669 12.3501H7.93353C8.16686 11.0279 8.7502 9.82232 9.68353 8.73343C9.76131 8.65565 9.8002 8.53899 9.8002 8.38343C9.8002 8.22787 9.74186 8.11121 9.6252 8.03343C9.50853 7.95565 9.39186 7.91676 9.2752 7.91676C9.15853 7.91676 9.06131 7.99454 8.98353 8.1501L8.16686 8.96676C7.46686 10.0557 7.03908 11.2612 6.88353 12.5834C6.41686 12.8168 6.10575 13.1668 5.9502 13.6334V13.8668V15.6168C6.02797 16.1612 6.3002 16.5501 6.76686 16.7834V19.9334C6.3002 20.2445 6.02797 20.6723 5.9502 21.2168V22.7334C5.9502 23.3557 6.22242 23.8223 6.76686 24.1334V27.4001C6.61131 27.4779 6.45575 27.614 6.3002 27.8084C6.14464 28.0029 6.02797 28.2557 5.9502 28.5668V30.3168C6.02797 30.939 6.33908 31.3668 6.88353 31.6001C7.11686 32.6112 7.64186 33.4473 8.45853 34.1084C9.2752 34.7695 10.228 35.1001 11.3169 35.1001H21.0002C21.1558 35.1001 21.2724 35.0418 21.3502 34.9251C21.428 34.8084 21.4669 34.6918 21.4669 34.5751C21.4669 34.4584 21.428 34.3418 21.3502 34.2251C21.2724 34.1084 21.1558 34.0501 21.0002 34.0501H11.3169C10.5391 34.0501 9.85853 33.8362 9.2752 33.4084C8.69186 32.9807 8.24464 32.4168 7.93353 31.7168H26.9502C26.7169 32.4168 26.2891 32.9807 25.6669 33.4084C25.0446 33.8362 24.3446 34.0501 23.5669 34.0501H23.4502C23.2946 34.0501 23.1585 34.1084 23.0419 34.2251C22.9252 34.3418 22.8669 34.4584 22.8669 34.5751C22.8669 34.6918 22.9252 34.8084 23.0419 34.9251C23.1585 35.0418 23.2946 35.1001 23.4502 35.1001H23.5669C24.6558 35.1001 25.6085 34.789 26.4252 34.1668C27.2419 33.5445 27.7669 32.7279 28.0002 31.7168C28.3113 31.5612 28.5641 31.3473 28.7585 31.0751C28.953 30.8029 29.0502 30.4723 29.0502 30.0834V28.5668ZM19.6002 1.96676H15.2835V1.1501H19.6002V1.96676ZM7.0002 13.8668C7.0002 13.6334 7.11686 13.4779 7.3502 13.4001H27.6502C27.8835 13.5557 28.0002 13.789 28.0002 14.1001V15.5001C28.0002 15.5779 27.9613 15.6557 27.8835 15.7334L27.6502 15.9668H7.3502C7.11686 15.889 7.0002 15.6945 7.0002 15.3834V13.8668ZM27.1835 17.0168V19.8168H24.3835V17.0168H27.1835ZM24.3835 24.3668H27.1835V27.1668H24.3835V24.3668ZM23.3335 17.0168C23.3335 20.3612 23.3335 23.7445 23.3335 27.1668H11.6669V17.0168H23.3335ZM7.3502 23.3168C7.11686 23.239 7.0002 23.0445 7.0002 22.7334V21.2168C7.07797 21.0612 7.19464 20.9445 7.3502 20.8668H10.6169V23.3168H7.3502ZM10.6169 24.3668V27.1668H7.81686V24.3668H10.6169ZM7.81686 19.8168V17.0168H10.6169V19.8168H7.81686ZM27.6502 30.6668H7.3502C7.11686 30.589 7.0002 30.3945 7.0002 30.0834V29.3834C6.92242 28.9945 6.92242 28.7223 7.0002 28.5668C7.07797 28.4112 7.23353 28.2945 7.46686 28.2168H27.5335C27.8446 28.2945 28.0002 28.489 28.0002 28.8001V29.5001C28.0002 29.9668 28.0002 30.2584 28.0002 30.3751C28.0002 30.4918 27.8835 30.589 27.6502 30.6668ZM27.6502 23.3168H24.3835V20.8668H27.6502C27.8835 20.9445 28.0002 21.139 28.0002 21.4501V22.0334C28.078 22.5001 28.078 22.8112 28.0002 22.9668C27.9224 23.1223 27.8058 23.239 27.6502 23.3168ZM20.3002 22.2668C20.2224 22.1112 20.1252 22.014 20.0085 21.9751C19.8919 21.9362 19.7752 21.9362 19.6585 21.9751C19.5419 22.014 19.4446 22.0918 19.3669 22.2084C19.2891 22.3251 19.2502 22.4612 19.2502 22.6168C19.4058 23.0057 19.4058 23.3945 19.2502 23.7834C19.0946 24.1723 18.8419 24.464 18.4919 24.6584C18.1419 24.8529 17.8113 24.9501 17.5002 24.9501C17.1891 24.9501 16.8391 24.8334 16.4502 24.6001C16.0613 24.3668 15.8085 23.9973 15.6919 23.4918C15.5752 22.9862 15.6335 22.539 15.8669 22.1501L17.5002 19.4668L18.2002 20.6334C18.278 20.7112 18.3752 20.7695 18.4919 20.8084C18.6085 20.8473 18.7252 20.8279 18.8419 20.7501C18.9585 20.6723 19.0363 20.5751 19.0752 20.4584C19.1141 20.3418 19.0946 20.2057 19.0169 20.0501L18.0835 18.4168C17.928 18.2612 17.7335 18.1834 17.5002 18.1834C17.2669 18.1834 17.0724 18.2612 16.9169 18.4168L15.0502 21.5668C14.5835 22.2668 14.4474 23.0057 14.6419 23.7834C14.8363 24.5612 15.2835 25.1445 15.9835 25.5334C16.4502 25.8445 16.9558 26.0001 17.5002 26.0001C18.0446 26.0001 18.5696 25.8445 19.0752 25.5334C19.5808 25.2223 19.9502 24.7557 20.1835 24.1334C20.4169 23.5112 20.4558 22.889 20.3002 22.2668Z" fill="#1C71D5"/>
</svg>
