<svg width="35" height="36" viewBox="0 0 35 36" fill="none" xmlns="http://www.w3.org/2000/svg">
<path d="M7.93333 14.9168H13.5333C13.8444 14.9168 14.1167 14.8001 14.35 14.5668C14.5833 14.3334 14.7 14.1001 14.7 13.8668H17.5C17.6556 13.8668 17.7917 13.9057 17.9083 13.9834C18.025 14.0612 18.0833 14.1779 18.0833 14.3334V14.9168C17.7722 14.9168 17.5 15.0334 17.2667 15.2668C17.0333 15.5001 16.9167 15.7723 16.9167 16.0834V17.1334C16.9167 17.4445 17.0333 17.7168 17.2667 17.9501C17.5 18.1834 17.7722 18.3001 18.0833 18.3001H23.6833C23.9944 18.3001 24.2667 18.1834 24.5 17.9501C24.7333 17.7168 24.85 17.4445 24.85 17.1334V16.0834C24.85 15.7723 24.7333 15.5001 24.5 15.2668C24.2667 15.0334 23.9944 14.9168 23.6833 14.9168V14.3334C23.6833 13.4001 23.4889 12.5445 23.1 11.7668C22.7111 10.989 22.2056 10.289 21.5833 9.66676C22.75 7.25565 24.5778 4.61121 27.0667 1.73343C28.6222 3.44454 29.9444 5.15565 31.0333 6.86676C32.9 9.74454 33.8333 12.0779 33.8333 13.8668C33.8333 15.0334 33.5417 16.1418 32.9583 17.1918C32.375 18.2418 31.5583 19.0584 30.5083 19.6418C29.4583 20.2251 28.3111 20.5168 27.0667 20.5168C26.3667 20.5168 25.6667 20.4001 24.9667 20.1668L24.6167 21.2168C25.4722 21.5279 26.2889 21.6834 27.0667 21.6834C28.5444 21.6834 29.8861 21.3334 31.0917 20.6334C32.2972 19.9334 33.25 18.9807 33.95 17.7751C34.65 16.5695 35 15.2668 35 13.8668C35 11.689 33.7944 8.8501 31.3833 5.3501C30.1389 3.56121 28.8556 1.96676 27.5333 0.566765L27.0667 0.100098L26.7167 0.566765C26.0167 1.26677 25.2389 2.16121 24.3833 3.2501C22.75 5.3501 21.5056 7.29454 20.65 9.08343C19.6389 8.46121 18.5889 8.1501 17.5 8.1501H14.7C14.7 7.91676 14.5833 7.68343 14.35 7.4501C14.1167 7.21676 13.8444 7.1001 13.5333 7.1001V5.93343C13.5333 5.62232 13.4167 5.36954 13.1833 5.1751C12.95 4.98065 12.6778 4.88343 12.3667 4.88343V3.71676H14.7C15.0111 3.71676 15.2639 3.6001 15.4583 3.36676C15.6528 3.13343 15.75 2.86121 15.75 2.5501V1.5001C15.75 1.18899 15.6528 0.916763 15.4583 0.68343C15.2639 0.450096 15.0111 0.333431 14.7 0.333431H6.76667C6.45556 0.333431 6.18333 0.450096 5.95 0.68343C5.71667 0.916763 5.6 1.18899 5.6 1.5001V2.5501C5.6 2.86121 5.71667 3.13343 5.95 3.36676C6.18333 3.6001 6.45556 3.71676 6.76667 3.71676H8.98333V4.88343C8.67222 4.88343 8.41944 4.98065 8.225 5.1751C8.03056 5.36954 7.93333 5.62232 7.93333 5.93343V7.1001C7.62222 7.1001 7.35 7.21676 7.11667 7.4501C6.88333 7.68343 6.76667 7.91676 6.76667 8.1501H0V13.8668H6.76667C6.76667 14.1001 6.88333 14.3334 7.11667 14.5668C7.35 14.8001 7.62222 14.9168 7.93333 14.9168ZM23.6833 17.1334H18.0833V16.0834H23.6833V17.1334ZM14.7 9.31676H17.5C18.9 9.31676 20.1056 9.80288 21.1167 10.7751C22.1278 11.7473 22.6333 12.9334 22.6333 14.3334V14.9168H19.25V14.3334C19.25 13.8668 19.075 13.4779 18.725 13.1668C18.375 12.8557 17.9667 12.7001 17.5 12.7001H14.7V9.31676ZM12.3667 1.5001H14.7V2.5501H12.3667C12.3667 2.39454 12.3667 2.21954 12.3667 2.0251C12.3667 1.83065 12.3667 1.65565 12.3667 1.5001ZM10.7333 1.5001C10.8889 1.5001 11.025 1.55843 11.1417 1.6751C11.2583 1.79176 11.3167 1.92788 11.3167 2.08343C11.3167 2.23899 11.2583 2.35565 11.1417 2.43343C11.025 2.51121 10.8889 2.5501 10.7333 2.5501C10.5778 2.5501 10.4417 2.51121 10.325 2.43343C10.2083 2.35565 10.15 2.23899 10.15 2.08343C10.15 1.92788 10.2083 1.79176 10.325 1.6751C10.4417 1.55843 10.5778 1.5001 10.7333 1.5001ZM10.15 3.71676H11.3167V4.88343H10.15V3.71676ZM6.76667 2.5501V1.5001H9.1C9.02222 1.65565 8.98333 1.83065 8.98333 2.0251C8.98333 2.21954 9.02222 2.39454 9.1 2.5501H6.76667ZM8.98333 5.93343H12.3667V7.1001H8.98333V5.93343ZM7.93333 8.1501H13.5333V13.8668H7.93333V8.1501ZM1.16667 9.31676H6.76667V12.7001H1.16667V9.31676ZM2.21667 10.4834H5.6V11.5334H2.21667V10.4834ZM18.0833 19.4668H19.25V21.6834H18.0833V19.4668ZM32.2 11.4168L31.15 11.7668C31.3056 12.1557 31.4222 12.5057 31.5 12.8168L32.55 12.5834C32.4722 12.1945 32.3556 11.8057 32.2 11.4168ZM27.0667 18.3001V19.4668C28.6222 19.4668 29.9639 18.9029 31.0917 17.7751C32.2194 16.6473 32.7833 15.3445 32.7833 13.8668H31.6167C31.6167 15.0334 31.1694 16.064 30.275 16.9584C29.3806 17.8529 28.3111 18.3001 27.0667 18.3001ZM29.9833 23.9001C29.3611 23.9001 28.7778 24.0168 28.2333 24.2501C27.9222 24.4834 27.5528 24.7751 27.125 25.1251C26.6972 25.4751 26.3472 25.7279 26.075 25.8834C25.8028 26.039 25.4333 26.1168 24.9667 26.1168C24.5 26.1168 24.0722 26.0001 23.6833 25.7668V19.4668H22.6333V24.9501C22.2444 24.5612 21.8556 24.289 21.4667 24.1334V19.4668H20.3V23.9001H19.95C19.3278 23.9001 18.7444 24.0168 18.2 24.2501C17.9667 24.4834 17.6361 24.7751 17.2083 25.1251C16.7806 25.4751 16.4111 25.7279 16.1 25.8834C15.7889 26.039 15.4194 26.1168 14.9917 26.1168C14.5639 26.1168 14.1944 26.039 13.8833 25.8834C13.5722 25.7279 13.2222 25.4945 12.8333 25.1834C12.3667 24.7945 12.0167 24.4834 11.7833 24.2501C11.2389 24.0168 10.6361 23.9001 9.975 23.9001C9.31389 23.9001 8.75 24.0168 8.28333 24.2501C7.97222 24.4834 7.60278 24.7751 7.175 25.1251C6.74722 25.4751 6.39722 25.7279 6.125 25.8834C5.85278 26.039 5.48333 26.1168 5.01667 26.1168C4.55 26.1168 4.18056 26.039 3.90833 25.8834C3.63611 25.7279 3.30556 25.4945 2.91667 25.1834C2.45 24.7945 2.06111 24.4834 1.75 24.2501C1.20556 24.0168 0.622222 23.9001 0 23.9001V25.0668C0.466667 25.0668 0.836111 25.1251 1.10833 25.2418C1.38056 25.3584 1.71111 25.6112 2.1 26.0001C2.56667 26.389 2.95556 26.6612 3.26667 26.8168C3.73333 27.1279 4.29722 27.2834 4.95833 27.2834C5.61944 27.2834 6.22222 27.1279 6.76667 26.8168C7.07778 26.6612 7.42778 26.389 7.81667 26.0001C8.20556 25.6112 8.55556 25.3584 8.86667 25.2418C9.17778 25.1251 9.56667 25.0668 10.0333 25.0668C10.5 25.0668 10.8694 25.1251 11.1417 25.2418C11.4139 25.3584 11.7444 25.6112 12.1333 26.0001C12.5222 26.389 12.8722 26.6612 13.1833 26.8168C13.65 27.0501 14.1944 27.2057 14.8167 27.2834C14.7389 27.439 14.7 27.6334 14.7 27.8668C14.7 28.3334 14.8556 28.7223 15.1667 29.0334C15.4778 29.3445 15.8667 29.5001 16.3333 29.5001C16.8 29.5001 17.2083 29.3445 17.5583 29.0334C17.9083 28.7223 18.0833 28.2945 18.0833 27.7501C18.0833 27.2057 17.85 26.7779 17.3833 26.4668L17.85 26.0001C18.2389 25.6112 18.5694 25.3584 18.8417 25.2418C19.1139 25.1251 19.4833 25.0668 19.95 25.0668H20.3V27.2834H21.4667V25.4168L22.6333 26.3501V30.6668H23.6833V27.0501C24.0722 27.2057 24.5 27.2834 24.9667 27.2834H25.0833C24.9278 27.5945 24.85 27.9445 24.85 28.3334C24.85 29.1112 25.1222 29.7723 25.6667 30.3168C26.2111 30.8612 26.8722 31.1334 27.65 31.1334C28.4278 31.1334 29.0889 30.8612 29.6333 30.3168C30.1778 29.7723 30.45 29.1501 30.45 28.4501C30.45 27.7501 30.2556 27.1473 29.8667 26.6418C29.4778 26.1362 28.9333 25.8057 28.2333 25.6501C28.7778 25.2612 29.3222 25.0668 29.8667 25.0668C30.4111 25.0668 30.8194 25.1251 31.0917 25.2418C31.3639 25.3584 31.6944 25.6112 32.0833 26.0001C32.55 26.389 32.9389 26.6612 33.25 26.8168C33.7944 27.1279 34.3778 27.2834 35 27.2834V26.1168C34.5333 26.1168 34.1639 26.039 33.8917 25.8834C33.6194 25.7279 33.2694 25.4751 32.8417 25.1251C32.4139 24.7751 32.0444 24.4834 31.7333 24.2501C31.1889 24.0168 30.6056 23.9001 29.9833 23.9001ZM16.3333 28.3334C16.1778 28.3334 16.0417 28.2945 15.925 28.2168C15.8083 28.139 15.75 28.0223 15.75 27.8668C15.75 27.7112 15.8083 27.5751 15.925 27.4584C16.0417 27.3418 16.1778 27.2834 16.3333 27.2834C16.4889 27.2834 16.625 27.3418 16.7417 27.4584C16.8583 27.5751 16.9167 27.7112 16.9167 27.8668C16.9167 28.0223 16.8583 28.139 16.7417 28.2168C16.625 28.2945 16.4889 28.3334 16.3333 28.3334ZM29.4 28.3334C29.4 28.8001 29.225 29.2084 28.875 29.5584C28.525 29.9084 28.1167 30.0834 27.65 30.0834C27.1833 30.0834 26.7944 29.9084 26.4833 29.5584C26.1722 29.2084 26.0167 28.8001 26.0167 28.3334C26.0167 27.8668 26.1722 27.4779 26.4833 27.1668C26.7944 26.8557 27.1833 26.7001 27.65 26.7001C28.1167 26.7001 28.525 26.8557 28.875 27.1668C29.225 27.4779 29.4 27.8668 29.4 28.3334ZM20.8833 31.7168C20.4167 31.7168 20.0278 31.8918 19.7167 32.2418C19.4056 32.5918 19.25 33.0001 19.25 33.4668C19.25 33.9334 19.4056 34.3223 19.7167 34.6334C20.0278 34.9445 20.4167 35.1001 20.8833 35.1001C21.35 35.1001 21.7583 34.9445 22.1083 34.6334C22.4583 34.3223 22.6333 33.9334 22.6333 33.4668C22.6333 33.0001 22.4583 32.5918 22.1083 32.2418C21.7583 31.8918 21.35 31.7168 20.8833 31.7168ZM20.8833 33.9334C20.7278 33.9334 20.5917 33.8945 20.475 33.8168C20.3583 33.739 20.3 33.6223 20.3 33.4668C20.3 33.3112 20.3583 33.1751 20.475 33.0584C20.5917 32.9418 20.7278 32.8834 20.8833 32.8834C21.0389 32.8834 21.175 32.9418 21.2917 33.0584C21.4083 33.1751 21.4667 33.3112 21.4667 33.4668C21.4667 33.6223 21.4083 33.739 21.2917 33.8168C21.175 33.8945 21.0389 33.9334 20.8833 33.9334Z" fill="#1C71D5"/>
</svg>
