<svg width="24" height="34" viewBox="0 0 24 34" fill="none" xmlns="http://www.w3.org/2000/svg">
<path d="M19.1552 9.52101C17.2661 6.42293 15.1126 3.36263 12.6946 0.340107C12.4679 0.113419 12.2034 7.24792e-05 11.9012 7.24792e-05C11.5989 7.24792e-05 11.3344 0.113419 11.1078 0.340107C8.68974 3.36263 6.5362 6.42293 4.64712 9.52101C1.54904 14.6593 0 18.853 0 22.1022C0 24.218 0.528941 26.2015 1.58682 28.0528C2.6447 29.9041 4.0804 31.3587 5.89391 32.4166C7.70742 33.4745 9.70984 34.0034 11.9012 34.0034C14.0925 34.0034 16.0949 33.4745 17.9084 32.4166C19.7219 31.3587 21.1576 29.9041 22.2155 28.0528C23.2734 26.2015 23.8023 24.218 23.8023 22.1022C23.8023 18.853 22.2533 14.6593 19.1552 9.52101ZM13.488 29.583C12.8079 29.8097 12.0901 29.923 11.3344 29.923C9.89875 29.923 8.55751 29.583 7.31072 28.9029C6.06393 28.2228 5.08161 27.2972 4.36376 26.126C3.64591 24.9548 3.28699 23.6891 3.28699 22.3289C3.28699 21.3466 3.55146 20.2132 4.0804 18.9286C4.23153 18.6263 4.43933 18.513 4.7038 18.5886C4.96827 18.6641 5.1005 18.853 5.1005 19.1553L4.98716 19.9487C4.98716 21.3844 5.36497 22.7445 6.1206 24.0291C6.87623 25.3137 7.89633 26.3716 9.1809 27.2027C10.4655 28.0339 11.9012 28.5251 13.488 28.6762C13.7147 28.7518 13.8469 28.9029 13.8847 29.1296C13.9225 29.3563 13.7902 29.5074 13.488 29.583Z" fill="white" fill-opacity="0.2"/>
</svg>
