<svg width="35" height="36" viewBox="0 0 35 36" fill="none" xmlns="http://www.w3.org/2000/svg">
<path d="M34.5333 26.1166H28.8167V23.4333C28.8167 23.2777 28.7583 23.1611 28.6417 23.0833C28.525 23.0055 28.3889 22.9666 28.2333 22.9666C28.0778 22.9666 27.9611 23.0055 27.8833 23.0833C27.8056 23.1611 27.7667 23.2777 27.7667 23.4333V28.6833C27.7667 28.8389 27.8056 28.975 27.8833 29.0916C27.9611 29.2083 28.0778 29.2666 28.2333 29.2666C28.3889 29.2666 28.525 29.2083 28.6417 29.0916C28.7583 28.975 28.8167 28.8389 28.8167 28.6833V27.1666H34.5333C34.6111 27.1666 34.7083 27.1083 34.825 26.9916C34.9417 26.875 35 26.7389 35 26.5833C35 26.4277 34.9417 26.3111 34.825 26.2333C34.7083 26.1555 34.6111 26.1166 34.5333 26.1166ZM14.2333 17.25V6.74997H14.7C17.0333 6.74997 19.2111 7.3333 21.2333 8.49997C23.2556 9.66663 24.85 11.2611 26.0167 13.2833C27.1833 15.3055 27.7667 17.4833 27.7667 19.8166V21.3333C27.7667 21.4889 27.8056 21.625 27.8833 21.7416C27.9611 21.8583 28.0778 21.9166 28.2333 21.9166C28.3889 21.9166 28.525 21.8583 28.6417 21.7416C28.7583 21.625 28.8167 21.4889 28.8167 21.3333V19.8166C28.8167 17.25 28.175 14.8972 26.8917 12.7583C25.6083 10.6194 23.8972 8.92775 21.7583 7.6833C19.6194 6.43886 17.2667 5.81663 14.7 5.81663H14.2333V3.59997C14.2333 3.28886 14.0972 2.99719 13.825 2.72497C13.5528 2.45275 13.2611 2.31663 12.95 2.31663H10.3833C10.0722 2.31663 9.8 2.45275 9.56667 2.72497C9.33333 2.99719 9.21667 3.28886 9.21667 3.59997V3.71663H1.16667C0.855556 3.71663 0.583333 3.8333 0.35 4.06663C0.116667 4.29997 0 4.57219 0 4.8833V18.5333C0 18.8444 0.116667 19.1166 0.35 19.35C0.583333 19.5833 0.855556 19.7 1.16667 19.7H9.21667V19.9333C9.21667 20.2444 9.33333 20.5166 9.56667 20.75C9.8 20.9833 10.0722 21.1 10.3833 21.1H12.95C13.2611 21.1 13.5528 20.9833 13.825 20.75C14.0972 20.5166 14.2333 20.2444 14.2333 19.9333V18.3C14.7778 18.3777 15.2639 18.6694 15.6917 19.175C16.1194 19.6805 16.3333 20.2444 16.3333 20.8666V26.1166H0.466667C0.388889 26.1166 0.291667 26.1555 0.175 26.2333C0.0583333 26.3111 0 26.4277 0 26.5833C0 26.7389 0.0583333 26.875 0.175 26.9916C0.291667 27.1083 0.388889 27.1666 0.466667 27.1666H16.3333V28.6833C16.3333 28.8389 16.3917 28.975 16.5083 29.0916C16.625 29.2083 16.7417 29.2666 16.8583 29.2666C16.975 29.2666 17.0917 29.2083 17.2083 29.0916C17.325 28.975 17.3833 28.8389 17.3833 28.6833V20.8666C17.3833 19.9333 17.0722 19.1166 16.45 18.4166C15.8278 17.7166 15.0889 17.3277 14.2333 17.25ZM13.1833 19.9333C13.1833 20.0111 13.1056 20.05 12.95 20.05H10.3833C10.3056 20.05 10.2667 20.0111 10.2667 19.9333V15.9666C10.2667 15.8111 10.2083 15.6944 10.0917 15.6166C9.975 15.5389 9.83889 15.5 9.68333 15.5C9.52778 15.5 9.41111 15.5389 9.33333 15.6166C9.25556 15.6944 9.21667 15.8111 9.21667 15.9666V18.7666H1.16667C1.08889 18.7666 1.05 18.6889 1.05 18.5333V4.8833C1.05 4.80552 1.08889 4.76663 1.16667 4.76663H9.21667V13.9833C9.21667 14.0611 9.25556 14.1583 9.33333 14.275C9.41111 14.3916 9.52778 14.45 9.68333 14.45C9.83889 14.45 9.975 14.3916 10.0917 14.275C10.2083 14.1583 10.2667 14.0611 10.2667 13.9833V3.59997C10.2667 3.44441 10.3056 3.36663 10.3833 3.36663H12.95C13.1056 3.36663 13.1833 3.44441 13.1833 3.59997V19.9333ZM14.5833 23.6666C14.5833 23.1222 14.4083 22.6944 14.0583 22.3833C13.7083 22.0722 13.3 21.9166 12.8333 21.9166C12.3667 21.9166 11.9583 22.0722 11.6083 22.3833C11.2583 22.6944 11.0833 23.1027 11.0833 23.6083C11.0833 24.1139 11.2583 24.5222 11.6083 24.8333C11.9583 25.1444 12.3667 25.3 12.8333 25.3C13.3 25.3 13.7083 25.1444 14.0583 24.8333C14.4083 24.5222 14.5833 24.1333 14.5833 23.6666ZM12.1333 23.6666C12.1333 23.4333 12.1917 23.2583 12.3083 23.1416C12.425 23.025 12.5806 22.9666 12.775 22.9666C12.9694 22.9666 13.1444 23.025 13.3 23.1416C13.4556 23.2583 13.5333 23.4139 13.5333 23.6083C13.5333 23.8027 13.4556 23.9777 13.3 24.1333C13.1444 24.2889 12.9694 24.3666 12.775 24.3666C12.5806 24.3666 12.425 24.2889 12.3083 24.1333C12.1917 23.9777 12.1333 23.8222 12.1333 23.6666ZM13.65 29.3833C13.1833 29.3833 12.775 29.5583 12.425 29.9083C12.075 30.2583 11.9 30.6666 11.9 31.1333C11.9 31.6 12.075 32.0083 12.425 32.3583C12.775 32.7083 13.1833 32.8833 13.65 32.8833C14.1167 32.8833 14.525 32.7083 14.875 32.3583C15.225 32.0083 15.4 31.6 15.4 31.1333C15.4 30.6666 15.225 30.2583 14.875 29.9083C14.525 29.5583 14.1167 29.3833 13.65 29.3833ZM13.65 31.8333C13.4944 31.8333 13.3389 31.7555 13.1833 31.6C13.0278 31.4444 12.95 31.2694 12.95 31.075C12.95 30.8805 13.0278 30.725 13.1833 30.6083C13.3389 30.4916 13.5139 30.4333 13.7083 30.4333C13.9028 30.4333 14.0583 30.4916 14.175 30.6083C14.2917 30.725 14.35 30.8805 14.35 31.075C14.35 31.2694 14.2917 31.4444 14.175 31.6C14.0583 31.7555 13.8833 31.8333 13.65 31.8333ZM22.9833 25.7666C22.5167 25.7666 22.1083 25.9416 21.7583 26.2916C21.4083 26.6416 21.2333 27.05 21.2333 27.5166C21.2333 27.9833 21.4083 28.3916 21.7583 28.7416C22.1083 29.0916 22.5167 29.2666 22.9833 29.2666C23.45 29.2666 23.8583 29.0916 24.2083 28.7416C24.5583 28.3916 24.7333 27.9833 24.7333 27.5166C24.7333 27.05 24.5583 26.6416 24.2083 26.2916C23.8583 25.9416 23.45 25.7666 22.9833 25.7666ZM22.9833 28.2166C22.75 28.2166 22.575 28.1389 22.4583 27.9833C22.3417 27.8277 22.2833 27.6527 22.2833 27.4583C22.2833 27.2639 22.3417 27.1083 22.4583 26.9916C22.575 26.875 22.7306 26.8166 22.925 26.8166C23.1194 26.8166 23.2944 26.875 23.45 26.9916C23.6056 27.1083 23.6833 27.2639 23.6833 27.4583C23.6833 27.6527 23.6056 27.8277 23.45 27.9833C23.2944 28.1389 23.1389 28.2166 22.9833 28.2166ZM31.6167 24.8333C32.0833 24.8333 32.4917 24.6583 32.8417 24.3083C33.1917 23.9583 33.3667 23.55 33.3667 23.0833C33.3667 22.6166 33.1917 22.2083 32.8417 21.8583C32.4917 21.5083 32.0833 21.3333 31.6167 21.3333C31.15 21.3333 30.7417 21.5083 30.3917 21.8583C30.0417 22.2083 29.8667 22.6166 29.8667 23.0833C29.8667 23.55 30.0417 23.9583 30.3917 24.3083C30.7417 24.6583 31.15 24.8333 31.6167 24.8333ZM31.6167 22.3833C31.85 22.3833 32.025 22.4611 32.1417 22.6166C32.2583 22.7722 32.3167 22.9472 32.3167 23.1416C32.3167 23.3361 32.2583 23.4916 32.1417 23.6083C32.025 23.725 31.8694 23.7833 31.675 23.7833C31.4806 23.7833 31.3056 23.725 31.15 23.6083C30.9944 23.4916 30.9167 23.3361 30.9167 23.1416C30.9167 22.9472 30.9944 22.7722 31.15 22.6166C31.3056 22.4611 31.4611 22.3833 31.6167 22.3833ZM32.55 17.95C33.0944 17.95 33.5222 17.775 33.8333 17.425C34.1444 17.075 34.3 16.6666 34.3 16.2C34.3 15.7333 34.1444 15.325 33.8333 14.975C33.5222 14.625 33.1139 14.45 32.6083 14.45C32.1028 14.45 31.675 14.625 31.325 14.975C30.975 15.325 30.8 15.7333 30.8 16.2C30.8 16.6666 30.975 17.075 31.325 17.425C31.675 17.775 32.0833 17.95 32.55 17.95ZM32.55 15.5C32.7833 15.5 32.9583 15.5583 33.075 15.675C33.1917 15.7916 33.25 15.9472 33.25 16.1416C33.25 16.3361 33.1917 16.5111 33.075 16.6666C32.9583 16.8222 32.8028 16.9 32.6083 16.9C32.4139 16.9 32.2389 16.8222 32.0833 16.6666C31.9278 16.5111 31.85 16.3361 31.85 16.1416C31.85 15.9472 31.9278 15.7916 32.0833 15.675C32.2389 15.5583 32.3944 15.5 32.55 15.5ZM16.3333 9.66663C16.1778 9.66663 16.0417 9.70552 15.925 9.7833C15.8083 9.86108 15.7306 9.9583 15.6917 10.075C15.6528 10.1916 15.6722 10.3083 15.75 10.425C15.8278 10.5416 15.9444 10.6389 16.1 10.7166C18.5111 11.2611 20.475 12.4861 21.9917 14.3916C23.5083 16.2972 24.2667 18.4944 24.2667 20.9833V23.6666C24.2667 23.8222 24.325 23.9583 24.4417 24.075C24.5583 24.1916 24.675 24.25 24.7917 24.25C24.9083 24.25 25.025 24.1916 25.1417 24.075C25.2583 23.9583 25.3167 23.8222 25.3167 23.6666V20.9833C25.3167 19.6611 25.1028 18.3777 24.675 17.1333C24.2472 15.8889 23.625 14.7611 22.8083 13.75C21.9917 12.7389 21.0194 11.8833 19.8917 11.1833C18.7639 10.4833 17.5778 9.97775 16.3333 9.66663ZM20.65 20.6333C20.4944 20.6333 20.3583 20.6916 20.2417 20.8083C20.125 20.925 20.0667 21.0611 20.0667 21.2166V24.25C20.0667 24.3277 20.125 24.425 20.2417 24.5416C20.3583 24.6583 20.475 24.7166 20.5917 24.7166C20.7083 24.7166 20.825 24.6583 20.9417 24.5416C21.0583 24.425 21.1167 24.3277 21.1167 24.25V21.2166C21.1167 21.0611 21.0583 20.925 20.9417 20.8083C20.825 20.6916 20.7278 20.6333 20.65 20.6333ZM20.4167 19.5833C20.5722 19.5833 20.6889 19.525 20.7667 19.4083C20.8444 19.2916 20.8833 19.1555 20.8833 19C20.4944 17.8333 19.9306 16.8027 19.1917 15.9083C18.4528 15.0139 17.5389 14.2944 16.45 13.75C16.2944 13.75 16.1583 13.7694 16.0417 13.8083C15.925 13.8472 15.8278 13.925 15.75 14.0416C15.6722 14.1583 15.6722 14.2944 15.75 14.45C15.8278 14.6055 15.9056 14.6833 15.9833 14.6833C16.9167 15.15 17.7139 15.7722 18.375 16.55C19.0361 17.3277 19.5222 18.2222 19.8333 19.2333C19.9111 19.3889 20.0083 19.5055 20.125 19.5833C20.2417 19.6611 20.3389 19.6611 20.4167 19.5833Z" fill="#1C71D5"/>
</svg>
