<svg width="36" height="36" viewBox="0 0 36 36" fill="none" xmlns="http://www.w3.org/2000/svg">
<path d="M6.06667 28.6834C6.06667 28.45 5.98889 28.2945 5.83333 28.2167C5.67778 28.1389 5.50278 28.1195 5.30833 28.1584C5.11389 28.1973 4.95833 28.2945 4.84167 28.45C4.725 28.6056 4.70556 28.7806 4.78333 28.975C4.86111 29.1695 4.97778 29.3056 5.13333 29.3834C5.28889 29.4612 5.46389 29.4806 5.65833 29.4417C5.85278 29.4028 5.98889 29.3056 6.06667 29.15C6.14444 28.9945 6.14444 28.8389 6.06667 28.6834ZM34.8833 28.1C34.5722 27.4 34.0861 26.8945 33.425 26.5834C32.7639 26.2723 32.0833 26.2334 31.3833 26.4667L25.6667 27.8667C25.8222 27.3223 25.7833 26.7778 25.55 26.2334C25.3167 25.6889 24.9278 25.2612 24.3833 24.95L14.7 19.35C13.9222 18.8834 13.0667 18.7667 12.1333 19L6.53333 20.5167C6.3 20.2056 5.98889 19.9917 5.6 19.875C5.21111 19.7584 4.82222 19.7778 4.43333 19.9334L0.466667 20.9834C0.311111 20.9834 0.194444 21.0806 0.116667 21.275C0.0388889 21.4695 0 21.6445 0 21.8L2.8 32.3C2.87778 32.5334 2.99444 32.6889 3.15 32.7667C3.30556 32.8445 3.5 32.8834 3.73333 32.8834L7.7 31.7167C8.01111 31.6389 8.30278 31.4639 8.575 31.1917C8.84722 30.9195 9.02222 30.5889 9.1 30.2L10.15 29.9667C10.6167 29.8112 11.1222 29.8889 11.6667 30.2L18.7833 34.2834C20.2611 35.1389 21.7778 35.3334 23.3333 34.8667L33.1333 31.6C33.9111 31.3667 34.4556 30.9 34.7667 30.2C35.0778 29.5 35.1167 28.8 34.8833 28.1ZM7.35 30.4334L3.96667 31.3667L1.51667 22.15L2.8 21.6834L4.08333 26.35C4.16111 26.5056 4.27778 26.6417 4.43333 26.7584C4.58889 26.875 4.74444 26.9139 4.9 26.875C5.05556 26.8362 5.19167 26.7195 5.30833 26.525C5.425 26.3306 5.44444 26.1556 5.36667 26L4.2 21.3334L4.78333 21.2167C5.01667 21.1389 5.21111 21.1584 5.36667 21.275C5.52222 21.3917 5.63889 21.5278 5.71667 21.6834L7.81667 29.6167C7.81667 29.7723 7.77778 29.9473 7.7 30.1417C7.62222 30.3362 7.50556 30.4334 7.35 30.4334ZM32.7833 30.3167L22.9833 33.5834C21.7389 33.8945 20.5722 33.7389 19.4833 33.1167L12.25 28.9167C11.4722 28.5278 10.6556 28.4112 9.8 28.5667L8.98333 28.8L7.11667 21.8L12.4833 20.2834C13.0278 20.1278 13.5333 20.2056 14 20.5167L23.6833 26.1167C24.0722 26.2723 24.3056 26.5445 24.3833 26.9334C24.4611 27.3223 24.4028 27.6723 24.2083 27.9834C24.0139 28.2945 23.7417 28.5084 23.3917 28.625C23.0417 28.7417 22.7111 28.6834 22.4 28.45L16.45 25.0667C16.2944 24.9889 16.1194 24.9695 15.925 25.0084C15.7306 25.0473 15.5944 25.1445 15.5167 25.3C15.4389 25.4556 15.4194 25.6306 15.4583 25.825C15.4972 26.0195 15.5944 26.1556 15.75 26.2334L21.7 29.6167C22.0889 29.85 22.5361 29.9667 23.0417 29.9667C23.5472 29.9667 23.9944 29.85 24.3833 29.6167L31.85 27.75C32.1611 27.5945 32.4917 27.6139 32.8417 27.8084C33.1917 28.0028 33.425 28.275 33.5417 28.625C33.6583 28.975 33.6389 29.3056 33.4833 29.6167C33.3278 29.9278 33.0944 30.1612 32.7833 30.3167ZM33.7167 9.31671L28 0.450043C27.9222 0.216709 27.7472 0.100044 27.475 0.100044C27.2028 0.100044 27.0278 0.216709 26.95 0.450043L21.2333 9.31671C20.1444 10.95 19.7556 12.7 20.0667 14.5667C20.3778 16.4334 21.2139 18.0084 22.575 19.2917C23.9361 20.575 25.5694 21.2167 27.475 21.2167C29.3806 21.2167 31.0333 20.575 32.4333 19.2917C33.8333 18.0084 34.6694 16.4334 34.9417 14.5667C35.2139 12.7 34.8056 10.95 33.7167 9.31671ZM27.5333 19.8167C25.9778 19.8167 24.6361 19.2917 23.5083 18.2417C22.3806 17.1917 21.6806 15.9084 21.4083 14.3917C21.1361 12.875 21.4667 11.4556 22.4 10.1334L27.5333 2.08338L32.55 10.1334C33.4833 11.4556 33.8333 12.875 33.6 14.3917C33.3667 15.9084 32.6667 17.1917 31.5 18.2417C30.3333 19.2917 29.0111 19.8167 27.5333 19.8167ZM31.5 10.8334C31.3444 10.6778 31.1889 10.5806 31.0333 10.5417C30.8778 10.5028 30.7222 10.5417 30.5667 10.6584C30.4111 10.775 30.3139 10.9306 30.275 11.125C30.2361 11.3195 30.2556 11.4945 30.3333 11.65C30.7222 12.1945 30.9167 12.8167 30.9167 13.5167C30.9167 14.45 30.5667 15.2862 29.8667 16.025C29.1667 16.7639 28.3889 17.1334 27.5333 17.1334C27.3 17.1334 27.125 17.1917 27.0083 17.3084C26.8917 17.425 26.8333 17.5806 26.8333 17.775C26.8333 17.9695 26.8917 18.1445 27.0083 18.3C27.125 18.4556 27.3 18.5334 27.5333 18.5334C28.7778 18.5334 29.8861 18.0278 30.8583 17.0167C31.8306 16.0056 32.3167 14.8389 32.3167 13.5167C32.3167 12.5056 32.0444 11.6112 31.5 10.8334Z" fill="#1C71D5"/>
</svg>
